#!OML:ASF H:\Not Pregnant\Project 1\Capture day 1\Session 1\non-pregnant.ASF
:FULLY-SPECIFIED
:DEGREES
1716
root -4.23954 15.9283 16.8294 -700.392 -85.0027 712.206
lowerback -2.20024 -0.529538 -0.678896
upperback -8.69602 -1.05814 -0.588139
thorax -7.85619 -0.625146 -0.17159
lowerneck 13.4699 -8.36235 -31.8503
upperneck -3.22194 -17.7497 40.3556
head 4.19419 -10.8301 20.3084
rclavicle -8.89561e-015 -5.96354e-015
rhumerus -48.557 -32.5241 -56.1064
rradius 22.5324
rwrist 38.8029
rhand -7.91886 4.892
rfingers 7.12502
rthumb 17.9869 -24.2963
lclavicle -8.89561e-015 -5.96354e-015
lhumerus -40.055 3.83746 73.8115
lradius 35.619
lwrist 37.1646
lhand -18.1283 -14.9168
lfingers 7.12502
lthumb 8.14651 14.9062
rfemur -29.6773 -1.03511 27.7822
rtibia 43.487
rfoot -26.9477 -2.2425
rtoes -19.7122
lfemur -25.9353 5.62842 -20.0506
ltibia 36.5851
lfoot -25.3025 -17.1959
ltoes -17.9194
1717
root -4.25072 15.9271 16.8725 -700.583 -84.9426 712.424
lowerback -2.38934 -0.499586 -0.54556
upperback -8.72875 -1.01647 -0.583375
thorax -7.7839 -0.615698 -0.245208
lowerneck 13.5725 -8.30741 -31.9805
upperneck -3.17392 -17.7293 40.3432
head 4.19138 -10.8272 20.3511
rclavicle 3.8763e-015 1.98785e-015
rhumerus -48.5767 -32.4372 -55.9887
rradius 22.5954
rwrist 38.5834
rhand -8.10321 4.71927
rfingers 7.12502
rthumb 17.8095 -24.4852
lclavicle 3.8763e-015 1.98785e-015
lhumerus -40.4212 4.05794 73.9385
lradius 35.9869
lwrist 37.5229
lhand -18.1596 -14.9107
lfingers 7.12502
lthumb 8.11629 14.9135
rfemur -29.5238 -0.970117 27.8602
rtibia 43.2003
rfoot -26.7242 -2.55823
rtoes -18.8696
lfemur -25.924 5.74105 -20.2288
ltibia 36.5851
lfoot -25.4012 -17.3688
ltoes -17.9251
1718
root -4.26219 15.9272 16.9148 -700.808 -84.908 712.679
lowerback -2.57872 -0.456892 -0.409431
upperback -8.76488 -0.959077 -0.587813
thorax -7.7153 -0.59908 -0.330462
lowerneck 13.6874 -8.25175 -32.1116
upperneck -3.13506 -17.7133 40.3458
head 4.18819 -10.8293 20.4034
rclavicle -1.59028e-015 -4.37326e-015
rhumerus -48.5984 -32.348 -55.9027
rradius 22.6719
rwrist 38.3368
rhand -8.26898 4.5687
rfingers 7.12502
rthumb 17.65 -24.6502
lclavicle -1.59028e-015 -4.37326e-015
lhumerus -40.7954 4.30099 74.0585
lradius 36.349
lwrist 37.8768
lhand -18.2106 -14.9041
lfingers 7.12502
lthumb 8.06712 14.9219
rfemur -29.3697 -0.832408 27.8591
rtibia 42.946
rfoot -26.4583 -2.95579
rtoes -18.0131
lfemur -25.889 5.86655 -20.4149
ltibia 36.5473
lfoot -25.4821 -17.5235
ltoes -17.9406
1719
root -4.27333 15.928 16.9558 -701.105 -84.8859 713.01
lowerback -2.76201 -0.408836 -0.279915
upperback -8.80507 -0.895723 -0.595909
thorax -7.6545 -0.57921 -0.415709
lowerneck 13.8073 -8.19451 -32.2469
upperneck -3.10329 -17.6984 40.3611
head 4.18526 -10.8339 20.4649
rclavicle 5.1684e-015 9.14409e-015
rhumerus -48.6127 -32.2467 -55.8562
rradius 22.7647
rwrist 38.054
rhand -8.43429 4.42831
rfingers 7.12502
rthumb 17.4909 -24.8048
lclavicle 5.1684e-015 9.14409e-015
lhumerus -41.1761 4.61138 74.1488
lradius 36.6907
lwrist 38.1674
lhand -18.2205 -14.8994
lfingers 7.12502
lthumb 8.05754 14.927
rfemur -29.2251 -0.653927 27.7865
rtibia 42.7246
rfoot -26.1462 -3.40469
rtoes -17.2106
lfemur -25.8435 6.03335 -20.6118
ltibia 36.4805
lfoot -25.5571 -17.7099
ltoes -17.9695
1720
root -4.28607 15.9287 16.9974 -701.435 -84.9044 713.348
lowerback -2.94008 -0.345241 -0.136203
upperback -8.83382 -0.811525 -0.612908
thorax -7.58418 -0.549969 -0.518758
lowerneck 13.9359 -8.13472 -32.3841
upperneck -3.08231 -17.6831 40.3895
head 4.17995 -10.8406 20.5359
rclavicle 3.926e-015 1.98785e-015
rhumerus -48.6033 -32.1155 -55.8549
rradius 22.861
rwrist 37.7174
rhand -8.56225 4.31743
rfingers 7.12502
rthumb 17.3678 -24.9266
lclavicle 3.926e-015 1.98785e-015
lhumerus -41.5743 4.94548 74.2217
lradius 37.0174
lwrist 38.3968
lhand -18.1506 -14.8968
lfingers 7.12502
lthumb 8.12499 14.927
rfemur -29.056 -0.458641 27.6392
rtibia 42.5318
rfoot -25.8089 -3.80047
rtoes -16.4479
lfemur -25.7416 6.17192 -20.8174
ltibia 36.3939
lfoot -25.6402 -17.8055
ltoes -18.0558
1721
root -4.299 15.9291 17.0388 -701.967 -84.9464 713.878
lowerback -3.11058 -0.274903 -0.00355045
upperback -8.85847 -0.7191 -0.636361
thorax -7.51335 -0.515905 -0.622259
lowerneck 14.071 -8.07102 -32.5301
upperneck -3.07379 -17.6654 40.4328
head 4.17259 -10.8481 20.6197
rclavicle -3.52843e-015 1.07344e-014
rhumerus -48.5689 -31.9527 -55.9006
rradius 22.9677
rwrist 37.3286
rhand -8.69287 4.2178
rfingers 7.12502
rthumb 17.2421 -25.0373
lclavicle -3.52843e-015 1.07344e-014
lhumerus -41.9852 5.31385 74.2683
lradius 37.316
lwrist 38.5418
lhand -17.9685 -14.8923
lfingers 7.12502
lthumb 8.30074 14.9246
rfemur -28.8973 -0.298403 27.4267
rtibia 42.3661
rfoot -25.4445 -4.08373
rtoes -15.7778
lfemur -25.6178 6.31183 -21.0456
ltibia 36.2946
lfoot -25.7318 -17.8824
ltoes -18.1749
1722
root -4.3124 15.9293 17.0799 -702.437 -85.0097 714.324
lowerback -3.26372 -0.193922 0.136998
upperback -8.87589 -0.61187 -0.656432
thorax -7.44409 -0.474456 -0.726622
lowerneck 14.2223 -8.00095 -32.687
upperneck -3.08397 -17.6417 40.4857
head 4.15739 -10.855 20.7149
rclavicle 5.81445e-015 6.75868e-015
rhumerus -48.4956 -31.7369 -55.9988
rradius 23.0741
rwrist 36.8702
rhand -8.84526 4.10678
rfingers 7.12502
rthumb 17.0954 -25.1611
lclavicle 5.81445e-015 6.75868e-015
lhumerus -42.4065 5.7415 74.2876
lradius 37.5708
lwrist 38.5536
lhand -17.69 -14.8877
lfingers 7.12502
lthumb 8.56949 14.9184
rfemur -28.7368 -0.182416 27.1885
rtibia 42.2205
rfoot -25.0541 -4.20223
rtoes -15.1452
lfemur -25.46 6.42719 -21.263
ltibia 36.19
lfoot -25.8447 -17.8866
ltoes -18.388
1723
root -4.32552 15.9293 17.1203 -703.034 -85.0949 714.887
lowerback -3.39857 -0.104865 0.269481
upperback -8.88889 -0.494375 -0.684448
thorax -7.37997 -0.427351 -0.834595
lowerneck 14.3852 -7.93009 -32.8395
upperneck -3.11287 -17.6168 40.5479
head 4.13553 -10.8633 20.8162
rclavicle -4.96962e-015 3.37934e-015
rhumerus -48.3897 -31.4855 -56.1472
rradius 23.1748
rwrist 36.3542
rhand -8.98938 3.99842
rfingers 7.12502
rthumb 16.9567 -25.2814
lclavicle -4.96962e-015 3.37934e-015
lhumerus -42.8261 6.22747 74.2606
lradius 37.7677
lwrist 38.4351
lhand -17.3278 -14.8935
lfingers 7.12502
lthumb 8.91903 14.898
rfemur -28.594 -0.136088 26.9247
rtibia 42.0935
rfoot -24.6378 -4.12848
rtoes -14.5281
lfemur -25.2859 6.53973 -21.4869
ltibia 36.0853
lfoot -25.9671 -17.8686
ltoes -18.6391
1724
root -4.33765 15.9296 17.1591 -703.544 -85.1919 715.356
lowerback -3.51032 -0.0109993 0.402995
upperback -8.90179 -0.370438 -0.711084
thorax -7.3284 -0.376853 -0.941354
lowerneck 14.5594 -7.85578 -32.9899
upperneck -3.15902 -17.5862 40.6148
head 4.10489 -10.8701 20.9225
rclavicle -6.95746e-016 -9.34288e-015
rhumerus -48.2338 -31.1665 -56.3719
rradius 23.2613
rwrist 35.762
rhand -9.12778 3.88703
rfingers 7.12502
rthumb 16.8234 -25.4042
lclavicle -6.95746e-016 -9.34288e-015
lhumerus -43.2502 6.70308 74.2276
lradius 37.9386
lwrist 38.3234
lhand -16.9936 -14.8939
lfingers 7.12502
lthumb 9.24152 14.8835
rfemur -28.4751 -0.147981 26.6714
rtibia 41.9824
rfoot -24.2154 -3.90656
rtoes -13.9584
lfemur -25.1104 6.65789 -21.6922
ltibia 35.9851
lfoot -26.0907 -17.8348
ltoes -18.9428
1725
root -4.34841 15.9304 17.1968 -703.781 -85.2875 715.554
lowerback -3.60119 0.0796516 0.560199
upperback -8.91773 -0.250351 -0.729205
thorax -7.29175 -0.329504 -1.05189
lowerneck 14.7311 -7.77845 -33.1439
upperneck -3.21083 -17.5494 40.6803
head 4.07064 -10.8733 21.0302
rclavicle 7.25564e-015 7.15625e-015
rhumerus -48.046 -30.8298 -56.6324
rradius 23.3282
rwrist 35.1735
rhand -9.29756 3.77536
rfingers 7.12502
rthumb 16.66 -25.5297
lclavicle 7.25564e-015 7.15625e-015
lhumerus -43.6798 7.19716 74.1748
lradius 38.0747
lwrist 38.2196
lhand -16.7069 -14.9105
lfingers 7.12502
lthumb 9.51816 14.8545
rfemur -28.3837 -0.22703 26.4546
rtibia 41.8875
rfoot -23.8213 -3.57668
rtoes -13.5106
lfemur -24.9455 6.77075 -21.8603
ltibia 35.8924
lfoot -26.2004 -17.8135
ltoes -19.2328
1726
root -4.35801 15.9312 17.2334 -704.099 -85.3949 715.844
lowerback -3.68102 0.169105 0.709809
upperback -8.93833 -0.132871 -0.754
thorax -7.26601 -0.283339 -1.1648
lowerneck 14.8996 -7.70115 -33.2856
upperneck -3.26817 -17.5075 40.7422
head 4.03116 -10.8733 21.1337
rclavicle 1.21756e-015 1.98785e-015
rhumerus -47.86 -30.5263 -56.9023
rradius 23.3843
rwrist 34.6496
rhand -9.49259 3.67388
rfingers 7.12502
rthumb 16.4722 -25.6468
lclavicle 1.21756e-015 1.98785e-015
lhumerus -44.1112 7.69311 74.0971
lradius 38.1774
lwrist 38.1428
lhand -16.4292 -14.9003
lfingers 7.12502
lthumb 9.78608 14.8524
rfemur -28.3252 -0.351451 26.2432
rtibia 41.8114
rfoot -23.4903 -3.21058
rtoes -13.2961
lfemur -24.798 6.84603 -22.024
ltibia 35.8091
lfoot -26.2913 -17.7768
ltoes -19.5132
1727
root -4.36591 15.9322 17.2679 -704.395 -85.5077 716.133
lowerback -3.75453 0.256638 0.845668
upperback -8.96722 -0.0188156 -0.778415
thorax -7.25244 -0.238231 -1.26928
lowerneck 15.0633 -7.62616 -33.4172
upperneck -3.33208 -17.4631 40.7992
head 3.9877 -10.8709 21.2316
rclavicle 4.24902e-015 6.36111e-015
rhumerus -47.6926 -30.2993 -57.1442
rradius 23.4314
rwrist 34.247
rhand -9.70914 3.5874
rfingers 7.12502
rthumb 16.2637 -25.7505
lclavicle 4.24902e-015 6.36111e-015
lhumerus -44.5374 8.17457 74.0055
lradius 38.2482
lwrist 38.1235
lhand -16.1739 -14.8634
lfingers 7.12502
lthumb 10.0324 14.8775
rfemur -28.3057 -0.476517 26.0476
rtibia 41.7543
rfoot -23.2441 -2.84702
rtoes -13.2692
lfemur -24.687 6.88647 -22.1709
ltibia 35.7383
lfoot -26.3379 -17.7692
ltoes -19.6826
1728
root -4.37404 15.9327 17.3019 -704.72 -85.6598 716.447
lowerback -3.82587 0.356784 0.976099
upperback -8.99027 0.111953 -0.808754
thorax -7.23265 -0.184458 -1.37718
lowerneck 15.2264 -7.55548 -33.5398
upperneck -3.40482 -17.4205 40.8527
head 3.94117 -10.8688 21.3244
rclavicle 2.03754e-015 1.59028e-015
rhumerus -47.5385 -30.1367 -57.3672
rradius 23.4732
rwrist 33.9496
rhand -9.93824 3.51702
rfingers 7.12502
rthumb 16.0431 -25.8388
lclavicle 2.03754e-015 1.59028e-015
lhumerus -44.9544 8.65427 73.8987
lradius 38.282
lwrist 38.1341
lhand -15.9183 -14.7831
lfingers 7.12502
lthumb 10.279 14.9458
rfemur -28.2858 -0.559101 25.8474
rtibia 41.7178
rfoot -23.1029 -2.49223
rtoes -13.3494
lfemur -24.5662 6.82543 -22.3098
ltibia 35.6799
lfoot -26.398 -17.6027
ltoes -19.9848
1729
root -4.38152 15.9326 17.3347 -705.05 -85.8327 716.778
lowerback -3.90197 0.465451 1.09685
upperback -9.01361 0.25344 -0.844323
thorax -7.20942 -0.124912 -1.48514
lowerneck 15.3869 -7.49182 -33.6529
upperneck -3.48502 -17.3847 40.9078
head 3.89537 -10.8701 21.4136
rclavicle 1.6524e-014 4.96962e-015
rhumerus -47.4048 -30.0515 -57.5619
rradius 23.5194
rwrist 33.7639
rhand -10.0929 3.47779
rfingers 7.12502
rthumb 15.8942 -25.8899
lclavicle 1.6524e-014 4.96962e-015
lhumerus -45.3554 9.10553 73.7886
lradius 38.2838
lwrist 38.1998
lhand -15.6913 -14.6663
lfingers 7.12502
lthumb 10.4979 15.0516
rfemur -28.2842 -0.598342 25.6547
rtibia 41.6997
rfoot -23.047 -2.18313
rtoes -13.4959
lfemur -24.4645 6.68742 -22.4391
ltibia 35.6341
lfoot -26.4482 -17.3546
ltoes -20.3119
